<svg width="800" height="600" viewBox="0 0 800 600" fill="none" xmlns="http://www.w3.org/2000/svg">
  <rect width="800" height="600" rx="36" fill="#111318"/>
  <rect x="40" y="40" width="720" height="520" rx="30" fill="url(#bg)"/>
  <circle cx="630" cy="180" r="96" fill="#7C3AED" fill-opacity="0.28"/>
  <circle cx="220" cy="460" r="128" fill="#5EEAD4" fill-opacity="0.22"/>
  <rect x="130" y="140" width="540" height="320" rx="26" fill="#0F172A" stroke="#334155" stroke-opacity="0.7"/>
  <rect x="170" y="190" width="240" height="160" rx="20" fill="url(#panel)"/>
  <rect x="430" y="190" width="190" height="48" rx="14" fill="#E2E8F0" fill-opacity="0.95"/>
  <rect x="430" y="256" width="160" height="16" rx="8" fill="#94A3B8"/>
  <rect x="430" y="284" width="132" height="16" rx="8" fill="#64748B"/>
  <rect x="430" y="332" width="174" height="86" rx="18" fill="#111827" stroke="#8B5CF6" stroke-opacity="0.45"/>
  <path d="M460 378C476 350 506 336 526 336C546 336 558 348 570 370" stroke="#F8FAFC" stroke-width="8" stroke-linecap="round"/>
  <path d="M176 388H384" stroke="#F8FAFC" stroke-opacity="0.7" stroke-width="10" stroke-linecap="round"/>
  <path d="M176 418H320" stroke="#94A3B8" stroke-width="10" stroke-linecap="round"/>
  <text x="170" y="120" fill="#F8FAFC" font-family="Georgia, 'Times New Roman', serif" font-size="52" font-weight="700">WriteVerse</text>
  <text x="170" y="150" fill="#C4B5FD" font-family="Arial, sans-serif" font-size="22">AI storytelling studio</text>
  <defs>
    <linearGradient id="bg" x1="100" y1="70" x2="700" y2="520" gradientUnits="userSpaceOnUse">
      <stop offset="0" stop-color="#1E293B"/>
      <stop offset="1" stop-color="#111827"/>
    </linearGradient>
    <linearGradient id="panel" x1="170" y1="190" x2="410" y2="350" gradientUnits="userSpaceOnUse">
      <stop offset="0" stop-color="#7C3AED"/>
      <stop offset="1" stop-color="#22D3EE"/>
    </linearGradient>
  </defs>
</svg>
